# xmcd CD database file
#
# Track frame offsets:
#	150
#	34601
#	74918
#	130319
#	155072
#	169298
#	194015
#	221723
#	248306
#	275817
#
# Disc length: 3826 seconds
#
# Revision: 1
# Processed by: cddbd v1.5.2PL0 Copyright (c) Steve Scherf et al.
# Submitted via: CDex 1.51
#
DISCID=a10ef00a
DTITLE=Gato Barbieri - The Impulse Story
DYEAR=2006
DGENRE=Jazz
TTITLE0=Nunca Mas (complete version)
TTITLE1=India
TTITLE2=Encontros (complete version)
TTITLE3=Latino America
TTITLE4=Gato Gato
TTITLE5=Cuando Vuelva a Tu Lado (What a Difference a Day makes)
TTITLE6=Viva Emiliano Zapata
TTITLE7=El Sublime
TTITLE8=Milonga Triste
TTITLE9=To Be Continued
EXTD=YEAR: 2006
EXTT0=
EXTT1=
EXTT2=
EXTT3=
EXTT4=
EXTT5=
EXTT6=
EXTT7=
EXTT8=
EXTT9=
PLAYORDER=
